<svg xmlns="http://www.w3.org/2000/svg" xmlns:xlink="http://www.w3.org/1999/xlink" width="500" zoomAndPan="magnify" viewBox="0 0 375 374.999991" height="500" preserveAspectRatio="xMidYMid meet" version="1.0"><defs><clipPath id="2b38b813e2"><path d="M 18 137.578125 L 356 137.578125 L 356 235 L 18 235 Z M 18 137.578125 " clip-rule="nonzero"/></clipPath></defs><g clip-path="url(#2b38b813e2)"><path fill="#b6aea7" d="M 348.613281 173.398438 C 347.25 173.398438 345.433594 174.53125 344.074219 175.664062 C 343.847656 176.117188 343.390625 176.570312 343.164062 176.796875 C 343.164062 185.640625 343.164062 194.027344 343.164062 202.640625 C 343.164062 208.082031 342.710938 224.179688 343.164062 227.578125 C 343.847656 230.527344 344.753906 232.339844 346.796875 233.472656 C 348.15625 233.925781 349.066406 234.152344 350.425781 233.925781 C 352.921875 233.472656 354.285156 232.792969 354.964844 231.433594 C 355.417969 230.300781 355.644531 228.941406 355.644531 221.003906 C 355.871094 216.019531 355.417969 210.804688 355.644531 205.816406 C 355.644531 199.695312 355.417969 194.253906 355.644531 192.214844 C 355.871094 185.867188 355.644531 178.839844 354.964844 177.25 C 354.511719 175.664062 353.605469 174.53125 352.015625 173.851562 C 350.652344 173.171875 349.972656 173.171875 348.613281 173.398438 Z M 239.917969 191.308594 C 240.597656 191.308594 241.050781 191.761719 241.050781 192.441406 C 241.050781 192.894531 240.597656 193.347656 239.917969 193.347656 C 239.464844 193.347656 239.011719 192.894531 239.011719 192.441406 C 239.011719 191.761719 239.464844 191.308594 239.917969 191.308594 Z M 239.917969 216.699219 C 240.597656 216.699219 241.050781 217.152344 241.050781 217.832031 C 241.050781 218.285156 240.597656 218.738281 239.917969 218.738281 C 239.464844 218.738281 239.011719 218.285156 239.011719 217.832031 C 239.011719 217.152344 239.464844 216.699219 239.917969 216.699219 Z M 239.917969 204.003906 C 240.597656 204.003906 241.050781 204.457031 241.050781 204.910156 C 241.050781 205.589844 240.597656 206.042969 239.917969 206.042969 C 239.464844 206.042969 239.011719 205.589844 239.011719 204.910156 C 239.011719 204.457031 239.464844 204.003906 239.917969 204.003906 Z M 342.257812 177.929688 C 339.535156 181.105469 335.449219 186.546875 330.003906 194.707031 C 328.871094 196.292969 328.644531 196.519531 327.507812 195.386719 C 326.601562 194.253906 323.195312 189.71875 321.382812 187 C 320.246094 185.414062 318.203125 182.691406 315.933594 179.972656 L 315.933594 198.789062 C 317.070312 200.828125 318.886719 203.777344 319.113281 204.003906 C 322.515625 208.082031 322.515625 208.308594 323.878906 208.988281 C 325.464844 209.898438 327.734375 210.125 330.003906 210.125 C 331.367188 209.898438 331.820312 209.898438 332.726562 209.445312 C 334.089844 208.761719 335.902344 206.949219 337.492188 204.683594 C 337.945312 204.003906 339.308594 202.1875 340.214844 200.828125 C 340.894531 199.921875 341.804688 198.5625 342.257812 197.65625 Z M 315.253906 179.066406 C 314.347656 177.929688 313.4375 176.796875 312.53125 175.890625 C 311.171875 174.53125 310.035156 173.851562 307.992188 173.851562 C 306.859375 173.851562 306.40625 173.851562 305.722656 174.304688 C 303.910156 175.210938 302.546875 176.796875 301.867188 179.066406 C 301.414062 182.238281 301.867188 199.695312 301.867188 207.855469 C 301.640625 215.109375 301.640625 226.898438 302.320312 228.714844 C 303.226562 231.660156 304.816406 233.246094 307.3125 233.925781 C 310.488281 234.835938 314.121094 232.566406 315.027344 228.941406 C 315.707031 226.21875 315.253906 212.617188 315.253906 207.402344 L 315.253906 206.269531 C 315.027344 197.203125 315.253906 188.132812 315.253906 179.066406 Z M 268.964844 209.671875 C 271.914062 210.804688 273.730469 211.710938 275.769531 213.070312 C 277.359375 214.429688 279.402344 216.019531 278.039062 218.058594 C 277.585938 218.964844 275.769531 219.191406 274.863281 219.191406 C 275.089844 219.417969 275.316406 219.644531 275.542969 219.871094 C 275.769531 220.097656 276.226562 220.324219 276.453125 220.777344 C 276.679688 221.003906 277.132812 221.457031 277.359375 221.683594 C 277.585938 222.140625 277.585938 222.59375 277.8125 223.046875 C 278.039062 223.273438 278.039062 223.726562 278.265625 224.179688 C 278.265625 224.632812 278.265625 225.085938 278.265625 225.3125 C 278.265625 225.765625 278.265625 226.21875 278.265625 226.671875 C 278.039062 227.125 278.039062 227.351562 278.039062 227.804688 C 277.8125 228.261719 277.8125 228.488281 277.585938 228.941406 L 277.132812 230.300781 C 276.90625 230.527344 276.679688 230.980469 276.453125 231.433594 C 276.226562 231.886719 275.996094 232.339844 275.769531 232.566406 C 275.316406 233.019531 275.089844 233.246094 274.636719 233.699219 L 274.183594 233.925781 C 275.089844 233.925781 275.769531 233.925781 276.679688 233.699219 C 283.714844 233.246094 290.519531 229.621094 293.015625 222.820312 C 295.058594 217.378906 293.925781 211.710938 290.746094 207.175781 C 288.023438 203.097656 284.167969 200.375 279.175781 198.109375 C 278.265625 197.65625 275.996094 196.976562 273.730469 196.066406 C 273.5 196.746094 273.273438 197.429688 273.046875 198.109375 C 272.59375 198.789062 272.367188 199.242188 271.914062 199.695312 C 271.460938 200.375 270.777344 200.828125 270.324219 201.28125 C 269.871094 201.734375 269.191406 202.1875 268.738281 202.414062 C 268.054688 202.867188 267.601562 203.097656 266.921875 203.550781 C 266.46875 203.777344 265.785156 204.003906 265.332031 204.230469 C 264.652344 204.457031 263.972656 204.683594 263.0625 204.910156 C 262.15625 205.136719 260.792969 205.136719 259.433594 205.136719 C 262.382812 207.402344 265.332031 208.535156 268.964844 209.671875 Z M 271.460938 218.285156 C 270.777344 218.058594 270.097656 217.605469 269.417969 217.152344 C 268.507812 216.472656 268.28125 215.109375 267.828125 214.203125 C 267.148438 212.390625 266.921875 211.9375 265.332031 210.804688 C 262.609375 208.308594 258.523438 208.535156 255.574219 210.578125 C 253.304688 212.164062 252.398438 214.65625 252.851562 217.378906 C 253.53125 221.457031 256.484375 225.765625 259.660156 228.261719 C 263.289062 231.433594 267.828125 233.246094 272.59375 233.699219 C 273.273438 233.472656 273.730469 233.246094 274.183594 233.019531 C 274.410156 232.792969 274.863281 232.339844 275.089844 232.113281 C 275.316406 231.660156 275.542969 231.433594 275.769531 230.980469 C 275.996094 230.753906 276.226562 230.300781 276.453125 229.847656 L 276.90625 228.714844 L 277.132812 227.578125 C 277.359375 227.351562 277.359375 226.898438 277.359375 226.445312 C 277.359375 226.21875 277.359375 225.765625 277.359375 225.3125 C 277.359375 225.085938 277.359375 224.632812 277.359375 224.40625 C 277.359375 223.953125 277.132812 223.5 277.132812 223.273438 C 276.90625 222.820312 276.679688 222.59375 276.453125 222.140625 C 276.453125 221.914062 275.996094 221.683594 275.769531 221.230469 C 275.542969 221.003906 275.316406 220.777344 274.863281 220.324219 C 274.636719 220.097656 274.183594 219.871094 273.957031 219.644531 C 272.820312 218.964844 272.820312 218.964844 271.460938 218.285156 Z M 273.046875 195.839844 C 270.550781 194.707031 268.28125 193.574219 267.828125 192.214844 C 267.375 192.441406 266.921875 192.667969 266.46875 192.894531 C 265.785156 193.121094 265.332031 193.121094 264.652344 193.121094 C 263.972656 193.347656 263.0625 193.121094 262.15625 192.894531 C 261.25 192.667969 260.339844 192.214844 259.207031 191.535156 C 258.296875 191.082031 257.390625 190.398438 256.710938 189.492188 C 255.574219 188.359375 254.667969 186.546875 253.988281 184.960938 C 253.078125 186.546875 252.625 188.359375 252.398438 190.171875 C 251.945312 195.160156 253.761719 199.46875 256.484375 202.640625 C 257.164062 203.324219 257.84375 203.777344 258.523438 204.457031 C 260.113281 204.230469 261.703125 204.230469 263.0625 204.003906 C 263.746094 204.003906 264.425781 203.777344 264.878906 203.550781 C 265.558594 203.324219 266.011719 203.097656 266.695312 202.640625 C 267.148438 202.414062 267.828125 202.1875 268.28125 201.734375 C 268.738281 201.507812 269.417969 201.054688 269.871094 200.601562 C 270.324219 200.148438 270.777344 199.695312 271.234375 199.242188 C 271.6875 198.789062 271.914062 198.335938 272.140625 197.882812 C 272.59375 197.203125 272.820312 196.519531 273.046875 195.839844 Z M 268.054688 191.308594 C 268.964844 189.71875 272.367188 187.679688 275.316406 187.679688 L 275.316406 187 C 275.316406 186.546875 275.542969 185.867188 275.542969 185.414062 C 275.769531 184.960938 275.996094 184.277344 276.453125 183.824219 C 276.90625 183.144531 277.359375 182.464844 278.265625 181.785156 C 278.722656 181.332031 279.628906 180.878906 280.308594 180.425781 C 281.21875 179.972656 282.125 179.519531 283.257812 179.292969 C 284.167969 179.066406 285.300781 178.839844 286.210938 178.613281 C 287.570312 178.613281 288.707031 178.613281 289.839844 178.839844 C 288.023438 177.25 285.980469 175.890625 283.484375 174.757812 C 274.410156 170.902344 264.199219 174.078125 257.617188 180.199219 C 256.484375 181.332031 255.347656 182.691406 254.441406 184.050781 C 255.121094 185.867188 256.027344 187.679688 257.390625 189.039062 C 258.070312 189.71875 258.753906 190.398438 259.660156 190.855469 C 260.566406 191.535156 261.703125 191.988281 262.382812 192.214844 C 263.289062 192.441406 263.972656 192.441406 264.425781 192.441406 C 265.105469 192.441406 265.785156 192.214844 266.242188 191.988281 C 266.921875 191.761719 267.601562 191.535156 268.054688 191.308594 Z M 276.226562 187.679688 C 276.679688 187.679688 277.132812 187.90625 277.585938 188.132812 C 277.8125 187.90625 277.8125 187.679688 278.039062 187.679688 C 278.265625 187.226562 278.492188 186.546875 278.949219 186.09375 C 279.402344 185.640625 279.855469 185.1875 280.535156 184.734375 C 280.988281 184.277344 281.671875 183.824219 282.351562 183.597656 C 283.03125 183.144531 283.714844 182.917969 284.394531 182.691406 C 285.300781 182.238281 285.980469 182.238281 286.890625 182.011719 C 287.570312 182.011719 288.25 182.011719 288.933594 182.011719 C 289.613281 182.011719 290.066406 182.238281 290.746094 182.464844 C 291.203125 182.464844 291.882812 182.691406 292.335938 182.917969 C 292.5625 183.144531 292.789062 183.371094 293.242188 183.597656 C 292.5625 182.238281 291.65625 180.878906 290.746094 179.746094 C 289.160156 179.519531 287.796875 179.519531 286.4375 179.519531 C 285.300781 179.519531 284.394531 179.746094 283.257812 179.972656 C 282.351562 180.199219 281.445312 180.652344 280.761719 181.105469 C 280.082031 181.558594 279.402344 182.011719 278.722656 182.464844 C 278.039062 183.144531 277.585938 183.597656 277.132812 184.277344 C 276.90625 184.734375 276.679688 185.1875 276.453125 185.640625 C 276.226562 186.09375 276.226562 186.546875 276.226562 187 Z M 279.628906 193.574219 C 280.988281 195.613281 283.484375 196.976562 286.210938 196.976562 C 290.519531 197.203125 293.925781 194.027344 294.152344 189.71875 C 294.378906 188.359375 294.152344 187 293.925781 185.867188 C 293.699219 185.414062 293.242188 184.960938 293.015625 184.507812 C 292.5625 184.277344 292.335938 184.050781 291.882812 183.824219 C 291.429688 183.597656 290.972656 183.371094 290.519531 183.144531 C 290.066406 182.917969 289.386719 182.917969 288.933594 182.917969 C 288.25 182.917969 287.570312 182.917969 286.890625 182.917969 C 286.210938 182.917969 285.527344 183.144531 284.621094 183.371094 C 283.941406 183.597656 283.257812 183.824219 282.578125 184.277344 C 282.125 184.507812 281.445312 184.960938 280.988281 185.414062 C 280.308594 185.867188 279.855469 186.320312 279.628906 186.773438 C 277.8125 188.8125 278.265625 191.308594 279.628906 193.574219 Z M 149.152344 215.566406 C 148.46875 213.523438 148.242188 205.363281 148.015625 197.65625 C 145.746094 194.480469 143.703125 191.535156 141.207031 188.585938 C 141.207031 188.359375 141.207031 188.359375 139.847656 189.71875 L 132.585938 196.976562 C 132.585938 201.28125 132.585938 205.589844 132.8125 209.671875 C 133.265625 216.472656 133.71875 229.621094 141.207031 232.792969 C 149.378906 236.648438 156.640625 231.207031 161.859375 225.539062 C 162.539062 230.753906 164.808594 234.152344 170.027344 234.152344 C 174.792969 233.925781 176.382812 227.351562 176.382812 223.5 C 176.382812 219.417969 176.382812 215.335938 176.382812 211.257812 C 176.382812 206.496094 175.925781 201.960938 175.925781 197.203125 C 173.65625 194.253906 171.84375 191.308594 169.347656 188.359375 C 169.347656 188.132812 169.347656 188.359375 167.757812 189.945312 L 159.136719 198.5625 C 157.546875 203.777344 155.050781 209.445312 149.152344 215.566406 Z M 148.015625 196.292969 L 148.015625 192.214844 C 145.746094 189.265625 143.933594 186.773438 141.664062 183.824219 C 141.4375 183.597656 141.4375 183.597656 140.074219 184.960938 L 132.585938 192.667969 L 132.585938 195.839844 L 139.167969 189.039062 C 141.207031 187 141.207031 187 141.664062 187.453125 L 143.25 189.492188 Z M 147.789062 190.855469 C 147.789062 188.585938 147.5625 186.773438 147.5625 185.640625 C 146.882812 180.199219 145.972656 173.625 139.621094 173.625 C 133.039062 173.851562 132.8125 182.464844 132.585938 187.453125 L 132.585938 191.308594 L 139.621094 184.277344 C 141.664062 182.238281 141.664062 182.238281 141.890625 182.691406 L 143.476562 184.960938 Z M 175.925781 195.839844 C 175.925781 194.707031 175.925781 193.574219 175.925781 192.441406 L 175.925781 191.988281 C 173.886719 189.039062 171.84375 186.320312 169.800781 183.597656 C 169.574219 183.371094 169.574219 183.597656 167.984375 185.1875 L 160.722656 192.441406 C 160.496094 194.027344 160.269531 195.386719 159.816406 196.976562 L 167.078125 189.492188 C 169.347656 187 169.347656 187 169.800781 187.453125 L 171.390625 189.71875 Z M 175.925781 190.628906 C 175.925781 184.277344 175.246094 172.492188 167.53125 173.398438 C 166.851562 173.398438 165.941406 173.625 165.488281 173.851562 C 160.042969 177.25 162.085938 184.277344 161.632812 189.492188 L 161.175781 191.082031 L 167.304688 184.734375 C 169.800781 182.238281 169.800781 182.238281 170.027344 182.691406 L 171.84375 184.960938 Z M 239.691406 174.304688 C 234.472656 174.53125 234.019531 179.972656 234.019531 184.734375 L 234.019531 227.578125 C 234.019531 231.207031 236.515625 233.925781 239.917969 233.925781 C 243.320312 233.699219 246.042969 231.207031 246.042969 228.035156 L 246.042969 186.09375 C 246.042969 182.011719 245.589844 174.078125 239.691406 174.304688 Z M 240.144531 171.808594 C 244.003906 171.808594 247.179688 168.636719 247.179688 164.554688 C 247.179688 160.703125 244.003906 157.527344 240.144531 157.527344 C 236.058594 157.527344 232.882812 160.703125 232.882812 164.554688 C 232.882812 168.636719 236.058594 171.808594 240.144531 171.808594 Z M 82.664062 145.285156 C 82.210938 143.699219 80.394531 141.886719 79.035156 140.980469 C 73.359375 137.125 57.25 137.351562 50.667969 137.804688 C 44.769531 138.257812 37.28125 138.9375 32.0625 140.523438 C 28.882812 141.433594 25.253906 142.792969 22.757812 144.832031 C 20.261719 146.871094 18.21875 148.914062 18.445312 152.085938 C 18.671875 153.902344 19.582031 155.261719 21.167969 156.167969 C 23.664062 157.527344 27.523438 156.847656 30.246094 156.167969 C 37.054688 154.582031 44.089844 153.222656 50.894531 152.765625 C 56.796875 152.539062 62.46875 152.992188 68.140625 153.675781 C 69.957031 153.902344 72.226562 154.355469 74.496094 154.355469 C 79.488281 154.128906 84.027344 150.953125 82.664062 145.285156 Z M 46.128906 201.734375 C 48.171875 201.734375 50.894531 201.734375 52.9375 201.734375 L 58.609375 201.507812 L 58.609375 203.097656 L 45.675781 203.550781 L 45.675781 201.734375 Z M 59.066406 219.644531 C 59.066406 217.152344 59.066406 214.65625 59.066406 212.390625 C 58.835938 212.390625 58.609375 212.617188 57.929688 212.84375 L 53.390625 215.109375 L 54.527344 216.019531 L 57.023438 217.832031 Z M 51.804688 215.109375 L 51.347656 214.882812 L 51.347656 214.65625 L 48.171875 212.390625 L 46.585938 211.257812 L 46.355469 211.257812 L 45.675781 210.804688 L 45.675781 218.285156 Z M 45.675781 204.230469 L 45.675781 209.898438 L 48.625 211.710938 L 51.804688 214.203125 L 52.710938 214.65625 L 58.835938 211.257812 L 58.609375 204.003906 L 54.527344 204.003906 C 53.84375 204.003906 53.164062 204.230469 52.484375 204.230469 C 50.667969 204.230469 48.851562 204.230469 47.039062 204.230469 Z M 45.675781 219.191406 C 45.675781 221.230469 45.902344 224.632812 46.128906 226.671875 C 46.585938 231.433594 49.761719 233.925781 52.9375 233.925781 C 55.207031 233.925781 57.703125 232.339844 58.609375 229.621094 C 59.519531 227.351562 59.292969 224.859375 59.066406 222.367188 L 59.066406 220.550781 L 58.609375 220.097656 L 58.382812 220.097656 L 53.390625 216.246094 L 52.484375 215.566406 L 46.585938 218.738281 C 46.355469 218.964844 45.902344 219.191406 45.675781 219.191406 Z M 58.609375 200.601562 C 58.835938 199.242188 58.382812 190.171875 58.382812 188.132812 C 58.15625 182.238281 58.382812 173.171875 58.15625 166.144531 C 58.15625 160.703125 57.929688 156.394531 57.929688 156.394531 C 53.617188 155.261719 49.988281 155.714844 45.902344 155.941406 C 44.996094 170.449219 44.996094 186.546875 45.675781 200.828125 Z M 51.347656 165.460938 C 51.804688 165.460938 52.257812 165.007812 52.257812 164.328125 C 52.257812 163.875 51.804688 163.421875 51.347656 163.421875 C 50.894531 163.421875 50.441406 163.875 50.441406 164.328125 C 50.441406 165.007812 50.894531 165.460938 51.347656 165.460938 Z M 51.121094 177.929688 C 51.804688 177.929688 52.03125 177.476562 52.03125 177.023438 C 52.03125 176.34375 51.804688 176.117188 51.121094 176.117188 C 50.667969 176.117188 50.214844 176.34375 50.214844 177.023438 C 50.214844 177.476562 50.667969 177.929688 51.121094 177.929688 Z M 51.578125 190.628906 C 52.257812 190.628906 52.710938 190.171875 52.710938 189.71875 C 52.710938 189.265625 52.257812 188.8125 51.578125 188.8125 C 51.121094 188.8125 50.667969 189.265625 50.667969 189.71875 C 50.667969 190.171875 51.121094 190.628906 51.578125 190.628906 Z M 89.925781 175.210938 C 78.804688 178.160156 72.453125 184.050781 68.820312 194.707031 C 67.914062 197.203125 67.6875 199.242188 67.6875 205.136719 L 67.6875 205.589844 L 82.664062 205.589844 C 82.664062 203.777344 82.664062 201.960938 83.117188 200.148438 C 84.933594 193.121094 94.238281 188.132812 100.363281 191.308594 C 103.3125 192.894531 106.945312 196.976562 108.078125 200.148438 C 108.53125 201.734375 108.757812 203.550781 108.757812 205.589844 L 124.644531 205.589844 C 124.417969 202.867188 124.191406 200.375 123.507812 197.65625 C 120.558594 185.414062 113.523438 177.703125 103.085938 174.984375 C 98.546875 173.851562 94.917969 173.851562 89.925781 175.210938 Z M 67.6875 206.269531 C 67.6875 211.710938 67.914062 213.070312 69.277344 216.699219 C 73.585938 228.941406 81.757812 234.835938 94.238281 234.835938 C 106.945312 234.835938 117.15625 229.621094 121.46875 220.777344 C 123.734375 216.472656 124.644531 211.484375 124.644531 206.269531 L 108.757812 206.269531 C 108.757812 208.761719 108.53125 210.804688 107.851562 212.390625 C 105.808594 216.472656 102.632812 218.511719 95.824219 219.191406 C 90.378906 219.644531 86.976562 217.832031 84.480469 213.070312 C 83.570312 211.03125 82.890625 208.761719 82.664062 206.269531 Z M 187.5 231.660156 L 187.5 226.21875 C 187.273438 216.699219 187.726562 211.484375 187.273438 201.734375 C 187.273438 199.46875 187.953125 197.429688 189.316406 195.613281 C 190.675781 193.574219 193.171875 192.667969 195.441406 191.761719 C 196.121094 191.535156 196.804688 191.308594 197.257812 191.082031 C 203.15625 189.039062 209.738281 191.082031 210.871094 195.160156 C 211.328125 194.480469 212.007812 193.574219 212.914062 192.667969 C 213.59375 192.214844 214.277344 191.535156 215.183594 191.082031 C 216.089844 190.628906 217 190.171875 217.90625 189.71875 C 218.585938 189.492188 219.496094 189.265625 220.175781 189.039062 C 221.082031 189.039062 221.765625 188.8125 222.21875 188.8125 C 222.898438 188.8125 223.578125 188.8125 224.261719 189.039062 C 224.714844 189.039062 225.167969 189.039062 225.621094 189.265625 C 221.992188 179.066406 210.191406 173.398438 199.980469 174.53125 C 194.761719 174.984375 189.542969 177.25 186.367188 181.558594 C 184.324219 184.277344 184.324219 185.640625 184.324219 189.945312 C 184.550781 202.867188 184.097656 214.203125 184.777344 227.351562 C 184.777344 228.941406 184.777344 229.847656 184.777344 231.207031 C 184.550781 234.609375 187.726562 234.835938 187.5 231.660156 Z M 210.871094 196.519531 C 210.871094 196.746094 210.871094 197.203125 210.871094 197.429688 C 212.007812 196.976562 213.140625 196.746094 214.277344 196.519531 C 214.957031 196.519531 215.863281 196.519531 216.546875 196.519531 C 217.226562 196.746094 218.132812 196.746094 218.816406 197.203125 C 219.496094 197.429688 220.402344 197.65625 221.082031 198.109375 C 221.765625 198.5625 222.445312 199.015625 223.125 199.46875 C 223.578125 199.921875 224.035156 200.601562 224.488281 201.054688 C 224.714844 201.507812 224.941406 202.1875 225.167969 202.640625 C 225.394531 203.09375 225.394531 203.550781 225.621094 204.003906 L 225.621094 204.230469 C 226.984375 199.921875 227.210938 194.933594 226.074219 190.398438 L 225.621094 190.398438 C 225.167969 189.945312 224.488281 189.945312 224.035156 189.71875 C 223.578125 189.71875 222.898438 189.71875 222.445312 189.71875 C 221.765625 189.71875 221.082031 189.71875 220.402344 189.945312 C 219.722656 190.171875 219.042969 190.171875 218.132812 190.628906 C 217.226562 190.855469 216.320312 191.308594 215.636719 191.761719 C 214.730469 192.214844 214.050781 192.894531 213.367188 193.347656 C 212.234375 194.480469 211.554688 195.386719 211.097656 196.519531 Z M 210.644531 198.335938 C 210.191406 199.695312 209.058594 200.601562 207.695312 201.28125 C 204.292969 203.09375 196.804688 201.734375 193.171875 204.457031 C 191.8125 205.589844 190.222656 206.722656 189.996094 207.855469 C 189.542969 209.214844 189.542969 213.070312 189.996094 215.335938 C 190.449219 217.152344 195.441406 221.683594 196.804688 222.820312 C 201.796875 227.125 209.738281 233.019531 212.234375 233.472656 C 219.949219 235.515625 224.714844 227.804688 219.722656 221.914062 C 218.132812 219.644531 214.050781 217.378906 213.367188 216.246094 C 214.957031 215.566406 220.628906 213.296875 224.261719 206.722656 L 224.488281 206.269531 C 224.714844 206.042969 224.714844 205.816406 224.714844 205.589844 C 224.714844 204.910156 224.714844 204.457031 224.714844 204.230469 C 224.714844 203.777344 224.488281 203.324219 224.261719 202.867188 C 224.261719 202.414062 224.035156 201.960938 223.808594 201.507812 C 223.351562 201.054688 223.125 200.601562 222.445312 200.148438 C 221.992188 199.695312 221.3125 199.242188 220.628906 198.789062 C 219.949219 198.5625 219.269531 198.109375 218.585938 197.882812 C 217.90625 197.65625 217.226562 197.429688 216.546875 197.429688 C 215.863281 197.429688 215.183594 197.429688 214.503906 197.429688 C 213.140625 197.65625 212.007812 197.882812 210.644531 198.335938 Z M 210.644531 198.335938 " fill-opacity="1" fill-rule="nonzero"/></g></svg>