<svg xmlns="http://www.w3.org/2000/svg" xmlns:xlink="http://www.w3.org/1999/xlink" width="500" zoomAndPan="magnify" viewBox="0 0 375 374.999991" height="500" preserveAspectRatio="xMidYMid meet" version="1.0"><defs><clipPath id="26913df6fc"><path d="M 292 143.203125 L 304 143.203125 L 304 155 L 292 155 Z M 292 143.203125 " clip-rule="nonzero"/></clipPath><clipPath id="582aecdd62"><path d="M 80 178 L 92.664062 178 L 92.664062 191 L 80 191 Z M 80 178 " clip-rule="nonzero"/></clipPath><clipPath id="8af233742d"><path d="M 86.019531 190.269531 C 86.625 190.269531 87.226562 190.066406 87.832031 189.867188 C 88.4375 189.664062 89.242188 189.464844 89.84375 189.261719 C 91.054688 188.660156 92.058594 187.453125 92.261719 186.246094 C 92.664062 184.839844 92.464844 183.429688 92.058594 182.222656 C 91.457031 180.816406 90.449219 179.40625 88.839844 179.003906 C 88.234375 178.804688 87.429688 178.804688 86.625 178.804688 C 85.414062 178.804688 84.207031 179.003906 83.199219 179.609375 C 81.992188 180.414062 80.984375 181.820312 80.582031 183.230469 C 80.179688 184.636719 79.980469 187.453125 80.984375 188.457031 C 82.394531 189.867188 84.410156 190.46875 86.019531 190.269531 Z M 86.019531 190.269531 " clip-rule="nonzero"/></clipPath><clipPath id="e3132fb8e8"><path d="M 312 152 L 375 152 L 375 231.703125 L 312 231.703125 Z M 312 152 " clip-rule="nonzero"/></clipPath><clipPath id="bf3c313afa"><path d="M 349 165.328125 L 364 165.328125 L 364 179 L 349 179 Z M 349 165.328125 " clip-rule="nonzero"/></clipPath><clipPath id="8eb4a47364"><path d="M 350.191406 174.179688 C 350.59375 175.789062 351.800781 177.195312 353.210938 178 C 355.222656 179.003906 357.839844 178.199219 359.855469 177.195312 C 360.257812 176.992188 360.863281 176.589844 361.265625 176.191406 C 362.472656 175.183594 362.875 173.574219 363.078125 172.167969 C 363.277344 171.160156 363.277344 169.953125 362.875 168.949219 C 362.070312 167.136719 360.257812 166.332031 358.445312 165.929688 C 357.4375 165.730469 356.632812 165.527344 355.625 165.730469 C 351.800781 166.132812 349.183594 170.757812 350.191406 174.179688 Z M 350.191406 174.179688 " clip-rule="nonzero"/></clipPath><clipPath id="3c2d8cbb27"><path d="M 321 187.453125 L 338 187.453125 L 338 203.542969 L 321 203.542969 Z M 321 187.453125 " clip-rule="nonzero"/></clipPath><clipPath id="3773b986ca"><path d="M 328.847656 203.34375 C 329.652344 203.34375 330.457031 203.140625 331.261719 202.941406 C 332.269531 202.738281 333.074219 202.539062 333.882812 202.136719 C 335.492188 201.332031 336.699219 199.722656 337.304688 197.914062 C 337.707031 196.101562 337.707031 194.292969 336.902344 192.480469 C 336.097656 190.46875 334.6875 188.660156 332.671875 188.257812 C 331.667969 188.054688 330.660156 187.855469 329.652344 188.054688 C 328.042969 188.054688 326.429688 188.457031 325.023438 189.261719 C 323.210938 190.269531 322.203125 192.078125 321.597656 194.089844 C 321.195312 195.902344 320.792969 199.519531 322.203125 201.128906 C 324.015625 202.738281 326.632812 203.542969 328.847656 203.34375 Z M 328.847656 203.34375 " clip-rule="nonzero"/></clipPath></defs><path fill="#ff5500" d="M 122.464844 152.054688 L 121.660156 224.863281 L 187.296875 226.675781 L 184.679688 150.042969 Z M 122.464844 152.054688 " fill-opacity="1" fill-rule="nonzero"/><path fill="#ffdd50" d="M 119.042969 148.632812 L 118.234375 221.242188 L 183.875 223.253906 L 181.058594 146.621094 Z M 119.042969 148.632812 " fill-opacity="1" fill-rule="nonzero"/><path fill="#473024" d="M 158.910156 153.460938 L 144.8125 153.863281 L 125.28125 215.210938 L 138.371094 218.226562 L 147.027344 191.476562 L 156.289062 191.878906 L 163.539062 218.226562 L 177.03125 214.40625 Z M 146.222656 180.414062 L 148.839844 169.753906 L 154.277344 180.414062 Z M 146.222656 180.414062 " fill-opacity="1" fill-rule="nonzero"/><path fill="#ffffff" d="M 257.972656 146.21875 L 256.5625 217.019531 L 308.710938 222.046875 L 298.644531 147.023438 Z M 257.972656 146.21875 " fill-opacity="1" fill-rule="nonzero"/><path fill="#1c1c1c" d="M 265.824219 155.671875 L 267.03125 215.007812 L 299.652344 215.007812 L 298.445312 204.953125 L 278.105469 204.148438 L 277.300781 187.050781 L 295.019531 187.050781 L 293.8125 175.988281 L 277.300781 175.183594 L 276.296875 166.332031 L 295.421875 165.929688 L 294.617188 155.671875 Z M 265.824219 155.671875 " fill-opacity="1" fill-rule="nonzero"/><path fill="#7394ff" d="M 263.8125 153.460938 L 265.019531 212.796875 L 297.4375 212.796875 L 296.429688 202.941406 L 276.09375 202.136719 L 275.289062 184.839844 L 293.007812 184.839844 L 291.800781 173.777344 L 275.289062 172.972656 L 274.082031 164.324219 L 293.207031 163.921875 L 292.605469 153.460938 Z M 263.8125 153.460938 " fill-opacity="1" fill-rule="nonzero"/><path fill="#ffffff" d="M 274.484375 157.484375 L 271.867188 153.863281 L 272.269531 158.289062 L 268.644531 160.5 L 272.269531 160.703125 L 273.476562 164.726562 L 274.28125 160.5 L 278.710938 160.703125 L 276.09375 158.890625 L 278.710938 155.875 Z M 274.484375 157.484375 " fill-opacity="1" fill-rule="nonzero"/><g clip-path="url(#26913df6fc)"><path fill="#ffcc3b" d="M 296.027344 147.628906 C 295.824219 147.628906 292.402344 149.839844 292.402344 149.839844 L 296.632812 150.042969 L 297.234375 154.265625 L 299.449219 149.839844 L 303.878906 151.25 L 300.660156 148.835938 L 303.476562 145.414062 L 299.652344 147.226562 L 297.234375 143.203125 Z M 296.027344 147.628906 " fill-opacity="1" fill-rule="nonzero"/></g><path fill="#ff4824" d="M 289.988281 168.546875 C 289.585938 168.546875 284.75 166.535156 284.75 166.535156 L 287.972656 171.363281 C 287.972656 171.363281 285.558594 175.789062 285.757812 175.789062 C 285.960938 175.789062 290.390625 172.769531 290.390625 172.769531 L 293.8125 177.796875 L 292.605469 171.765625 L 297.4375 167.941406 L 292.605469 168.746094 L 291.800781 164.726562 Z M 289.988281 168.546875 " fill-opacity="1" fill-rule="nonzero"/><path fill="#eadfdf" d="M 113 153.261719 L 109.980469 223.859375 L 59.039062 223.457031 L 63.265625 153.058594 Z M 113 153.261719 " fill-opacity="1" fill-rule="nonzero"/><path fill="#ffffff" d="M 81.589844 190.066406 C 81.589844 190.066406 95.683594 190.066406 99.308594 174.378906 C 102.730469 158.691406 70.515625 159.292969 70.515625 159.292969 L 68.503906 220.640625 L 77.765625 221.042969 L 78.570312 203.746094 L 95.484375 220.640625 L 102.730469 213.398438 Z M 80.582031 170.558594 C 80.582031 170.558594 86.625 171.765625 87.027344 174.78125 C 87.429688 177.796875 80.984375 179.40625 80.984375 179.40625 Z M 80.582031 170.558594 " fill-opacity="1" fill-rule="nonzero"/><path fill="#2d3510" d="M 84.007812 188.660156 C 84.007812 188.660156 98.101562 188.660156 101.726562 172.972656 C 104.945312 157.28125 72.933594 157.886719 72.933594 157.886719 L 70.917969 219.234375 L 80.179688 219.636719 L 80.984375 202.335938 L 97.898438 219.234375 L 105.148438 211.992188 Z M 82.796875 169.148438 C 82.796875 169.148438 88.839844 170.355469 89.242188 173.375 C 89.644531 176.390625 83.199219 178 83.199219 178 Z M 82.796875 169.148438 " fill-opacity="1" fill-rule="nonzero"/><path fill="#f7cb52" d="M 86.019531 190.269531 C 86.625 190.269531 87.226562 190.066406 87.832031 189.867188 C 88.4375 189.664062 89.242188 189.464844 89.84375 189.261719 C 91.054688 188.660156 92.058594 187.453125 92.261719 186.246094 C 92.664062 184.839844 92.464844 183.429688 92.058594 182.222656 C 91.457031 180.816406 90.449219 179.40625 88.839844 179.003906 C 88.234375 178.804688 87.429688 178.804688 86.625 178.804688 C 85.414062 178.804688 84.207031 179.003906 83.199219 179.609375 C 81.992188 180.414062 80.984375 181.820312 80.582031 183.230469 C 80.179688 184.636719 79.980469 187.453125 80.984375 188.457031 C 82.394531 189.867188 84.410156 190.46875 86.019531 190.269531 Z M 86.019531 190.269531 " fill-opacity="1" fill-rule="nonzero"/><g clip-path="url(#582aecdd62)"><g clip-path="url(#8af233742d)"><path fill="#ffffff" d="M 95.683594 183.230469 C 94.878906 183.632812 93.871094 184.234375 93.066406 184.839844 C 92.664062 184.234375 92.261719 183.632812 92.058594 183.027344 C 92.058594 183.027344 92.261719 182.828125 92.261719 182.828125 C 93.46875 182.222656 94.476562 181.417969 95.683594 180.816406 C 95.886719 180.816406 95.683594 180.613281 95.484375 180.613281 C 94.273438 181.21875 93.066406 182.023438 91.859375 182.828125 C 91.65625 182.425781 91.253906 181.820312 91.054688 181.417969 C 91.054688 181.21875 90.851562 181.21875 90.851562 181.015625 C 90.851562 181.015625 91.054688 180.816406 91.253906 180.816406 C 92.464844 180.210938 93.46875 179.609375 94.679688 179.207031 C 94.878906 179.207031 94.679688 179.003906 94.476562 179.003906 C 93.269531 179.609375 92.058594 180.210938 90.851562 180.816406 C 90.652344 180.414062 90.449219 180.011719 90.046875 179.609375 C 90.046875 179.40625 89.84375 179.609375 89.84375 179.808594 L 90.652344 181.015625 C 90.046875 181.417969 89.441406 181.621094 89.039062 182.023438 C 88.839844 181.417969 88.636719 181.21875 88.636719 180.816406 C 88.4375 180.414062 88.234375 180.210938 88.234375 179.808594 C 88.234375 179.808594 88.4375 179.808594 88.4375 179.609375 C 89.242188 179.207031 90.046875 178.601562 90.851562 178.199219 C 91.054688 178.199219 90.851562 178 90.652344 178 C 89.644531 178.601562 88.839844 179.003906 87.832031 179.609375 C 87.628906 179.207031 87.429688 178.804688 87.226562 178.199219 C 87.226562 178 87.027344 178.199219 87.027344 178.402344 C 87.226562 178.804688 87.429688 179.207031 87.628906 179.808594 C 87.226562 180.011719 86.625 180.414062 86.222656 180.613281 C 85.820312 180.816406 85.617188 181.015625 85.214844 181.21875 C 84.609375 180.210938 84.207031 179.207031 83.605469 178.199219 C 83.605469 178 83.402344 178.199219 83.402344 178.402344 C 84.007812 179.40625 84.410156 180.414062 85.011719 181.417969 C 84.410156 181.820312 83.605469 182.222656 83 182.625 C 83 182.425781 82.796875 182.222656 82.796875 182.023438 C 82.394531 181.015625 81.992188 180.210938 81.589844 179.207031 C 81.589844 179.003906 81.390625 179.207031 81.390625 179.40625 C 81.792969 180.613281 82.394531 181.621094 82.796875 182.625 C 82.597656 182.828125 82.195312 183.027344 81.992188 183.230469 C 81.589844 183.429688 81.1875 183.632812 80.984375 184.035156 C 80.785156 183.429688 80.582031 182.828125 80.382812 182.222656 C 80.382812 182.023438 80.179688 182.222656 80.179688 182.222656 C 80.382812 182.828125 80.582031 183.429688 80.785156 184.035156 C 80.382812 184.234375 79.980469 184.4375 79.777344 184.839844 C 79.578125 184.839844 79.777344 185.039062 79.980469 185.039062 C 80.382812 184.839844 80.785156 184.636719 80.984375 184.234375 C 81.1875 184.839844 81.589844 185.644531 81.792969 186.246094 C 81.1875 186.648438 80.582031 187.050781 79.980469 187.652344 C 79.777344 187.652344 79.980469 187.855469 80.179688 187.855469 C 80.785156 187.453125 81.390625 187.050781 81.792969 186.648438 C 82.195312 187.453125 82.597656 188.257812 83 189.0625 C 82.394531 189.664062 81.589844 190.269531 80.984375 190.871094 C 80.984375 190.871094 80.984375 191.074219 81.1875 191.074219 C 81.792969 190.46875 82.394531 189.867188 83.199219 189.464844 C 83.199219 189.664062 83.402344 189.867188 83.402344 189.867188 C 83.804688 190.46875 84.207031 191.074219 84.8125 191.675781 C 84.8125 191.878906 85.011719 191.675781 85.011719 191.476562 C 85.011719 191.476562 85.011719 191.476562 85.011719 191.273438 C 85.617188 190.671875 86.222656 190.066406 86.824219 189.664062 C 87.226562 190.269531 87.628906 190.871094 88.035156 191.476562 C 88.035156 191.675781 88.234375 191.476562 88.234375 191.273438 C 87.832031 190.671875 87.429688 190.066406 87.027344 189.464844 C 87.628906 188.859375 88.234375 188.457031 89.039062 187.855469 C 89.242188 188.054688 89.441406 188.257812 89.441406 188.660156 C 90.046875 189.464844 90.652344 190.46875 91.457031 191.273438 C 91.457031 191.476562 91.65625 191.273438 91.65625 191.074219 C 90.851562 190.066406 90.046875 188.859375 89.242188 187.855469 C 90.046875 187.253906 90.652344 186.648438 91.457031 186.246094 C 91.65625 186.648438 91.859375 187.050781 92.261719 187.453125 C 92.867188 188.257812 93.269531 189.0625 93.871094 189.867188 C 93.871094 190.066406 94.074219 189.867188 94.074219 189.664062 C 93.269531 188.457031 92.464844 187.253906 91.65625 186.046875 C 92.261719 185.644531 92.664062 185.242188 93.269531 185.039062 L 93.871094 186.046875 C 94.273438 186.648438 94.476562 187.253906 94.878906 187.855469 C 94.878906 188.054688 95.082031 187.855469 95.082031 187.652344 C 94.476562 186.648438 94.074219 185.84375 93.46875 184.839844 C 94.074219 184.234375 95.082031 183.832031 95.683594 183.230469 C 96.085938 183.230469 95.886719 183.027344 95.683594 183.230469 Z M 90.851562 181.015625 L 91.859375 182.828125 C 91.253906 183.230469 90.652344 183.632812 90.25 183.832031 C 89.84375 183.230469 89.644531 182.625 89.242188 182.023438 C 89.644531 181.621094 90.25 181.21875 90.851562 181.015625 Z M 89.441406 183.027344 C 89.644531 183.230469 89.84375 183.632812 89.84375 184.035156 C 89.84375 184.035156 89.644531 184.035156 89.644531 184.234375 C 88.839844 184.636719 88.234375 185.242188 87.628906 185.644531 C 87.226562 185.039062 86.824219 184.234375 86.421875 183.632812 C 87.226562 183.027344 88.035156 182.625 88.839844 182.222656 C 89.039062 182.425781 89.242188 182.625 89.441406 183.027344 Z M 87.429688 185.644531 C 86.824219 186.046875 86.019531 186.648438 85.414062 187.050781 C 85.414062 187.050781 85.414062 186.851562 85.214844 186.851562 C 84.8125 186.246094 84.609375 185.644531 84.207031 184.839844 C 84.609375 184.636719 85.011719 184.234375 85.617188 184.035156 C 85.820312 183.832031 86.019531 183.832031 86.222656 183.632812 C 86.625 184.4375 87.027344 185.039062 87.429688 185.644531 Z M 87.832031 180.011719 C 88.035156 180.613281 88.4375 181.21875 88.636719 181.820312 C 88.636719 181.820312 88.636719 181.820312 88.4375 181.820312 C 87.628906 182.222656 86.824219 182.828125 86.222656 183.230469 C 85.820312 182.625 85.617188 182.023438 85.214844 181.417969 C 86.222656 181.015625 87.027344 180.414062 87.832031 180.011719 Z M 84.007812 182.425781 C 84.410156 182.222656 84.8125 182.023438 85.214844 181.621094 C 85.617188 182.222656 85.820312 182.828125 86.222656 183.429688 C 85.617188 183.832031 84.8125 184.234375 84.207031 184.839844 C 83.804688 184.234375 83.605469 183.632812 83.199219 183.027344 C 83.402344 182.828125 83.804688 182.625 84.007812 182.425781 Z M 80.984375 184.4375 C 81.589844 183.832031 82.195312 183.429688 83 183.027344 C 83.199219 183.429688 83.402344 183.832031 83.605469 184.4375 C 83.605469 184.636719 83.804688 184.839844 83.804688 185.039062 C 83.402344 185.242188 83.199219 185.441406 82.796875 185.644531 C 82.394531 185.84375 81.992188 186.246094 81.589844 186.449219 C 81.589844 185.84375 81.390625 185.242188 80.984375 184.4375 Z M 81.992188 186.648438 C 82.597656 186.246094 83.402344 185.644531 84.007812 185.242188 C 84.410156 186.046875 84.8125 186.648438 85.214844 187.453125 C 84.8125 187.652344 84.410156 188.054688 84.007812 188.457031 C 83.804688 188.660156 83.402344 188.859375 83.199219 189.0625 C 82.796875 188.257812 82.394531 187.453125 81.992188 186.648438 Z M 84.8125 191.273438 C 84.410156 190.671875 83.804688 189.867188 83.402344 189.261719 C 84.007812 188.660156 84.8125 188.257812 85.414062 187.652344 C 85.617188 188.257812 86.019531 188.660156 86.222656 189.261719 C 86.222656 189.464844 86.421875 189.664062 86.421875 189.664062 C 86.019531 190.066406 85.414062 190.671875 84.8125 191.273438 Z M 86.824219 189.261719 C 86.222656 188.660156 85.820312 188.054688 85.414062 187.453125 C 85.820312 187.253906 86.222656 186.851562 86.625 186.648438 C 86.824219 186.449219 87.226562 186.246094 87.429688 186.046875 C 87.832031 186.648438 88.234375 187.253906 88.636719 188.054688 C 88.035156 188.257812 87.429688 188.660156 86.824219 189.261719 Z M 88.839844 187.652344 C 88.636719 187.253906 88.234375 186.851562 88.035156 186.449219 C 87.832031 186.246094 87.832031 186.046875 87.628906 185.84375 C 88.4375 185.242188 89.242188 184.839844 90.046875 184.234375 C 90.449219 184.839844 90.851562 185.441406 91.253906 186.046875 C 90.449219 186.648438 89.644531 187.050781 88.839844 187.652344 Z M 91.253906 185.84375 C 91.253906 185.644531 91.054688 185.441406 91.054688 185.242188 C 90.851562 184.839844 90.449219 184.234375 90.25 183.832031 C 90.851562 183.429688 91.457031 183.027344 91.859375 182.828125 L 92.867188 184.636719 C 92.464844 185.242188 91.859375 185.644531 91.253906 185.84375 Z M 91.253906 185.84375 " fill-opacity="1" fill-rule="nonzero"/></g></g><path fill="#ff4824" d="M 95.886719 176.390625 C 96.289062 175.988281 96.488281 175.585938 96.894531 174.984375 C 96.894531 174.78125 97.09375 174.78125 97.09375 174.78125 C 97.09375 174.78125 97.296875 174.78125 97.296875 174.78125 C 97.898438 174.984375 98.300781 175.183594 98.90625 175.585938 C 98.703125 175.183594 98.503906 174.78125 98.300781 174.378906 C 98.703125 174.179688 99.109375 173.777344 99.511719 173.375 C 98.90625 173.375 98.503906 173.375 97.898438 173.375 C 97.898438 172.769531 97.699219 172.167969 97.699219 171.765625 C 97.699219 171.5625 97.699219 171.363281 97.496094 171.5625 C 97.496094 171.5625 97.496094 171.5625 97.296875 171.765625 C 97.09375 172.367188 96.894531 172.769531 96.691406 173.375 C 96.691406 173.375 96.691406 173.574219 96.488281 173.574219 C 96.488281 173.574219 96.289062 173.574219 96.289062 173.574219 C 95.683594 173.574219 95.28125 173.574219 94.679688 173.574219 C 94.679688 173.574219 96.289062 174.378906 96.289062 174.582031 C 96.488281 174.78125 95.886719 175.789062 95.886719 176.390625 Z M 95.886719 176.390625 " fill-opacity="1" fill-rule="nonzero"/><path fill="#576bff" d="M 70.316406 190.871094 C 70.71875 191.476562 71.121094 191.878906 71.320312 192.480469 C 70.917969 193.085938 70.515625 193.6875 70.113281 194.292969 C 70.71875 193.890625 71.320312 193.6875 71.722656 193.285156 C 71.925781 193.890625 72.328125 194.492188 72.53125 195.097656 C 72.53125 194.492188 72.53125 193.6875 72.53125 193.085938 C 72.933594 192.882812 73.535156 192.683594 73.9375 192.683594 C 73.535156 192.480469 73.132812 192.28125 72.730469 192.28125 C 72.933594 191.878906 72.933594 191.273438 73.132812 190.871094 C 73.132812 191.074219 72.53125 191.476562 72.53125 191.476562 C 72.328125 191.675781 72.328125 191.878906 71.925781 191.878906 C 71.722656 191.878906 71.320312 191.476562 71.121094 191.476562 C 70.917969 191.273438 70.71875 191.074219 70.316406 190.871094 Z M 70.316406 190.871094 " fill-opacity="1" fill-rule="nonzero"/><path fill="#ffd2dd" d="M 80.179688 192.882812 C 80.179688 193.488281 80.179688 193.890625 80.382812 194.492188 C 80.382812 194.492188 80.382812 194.695312 80.382812 194.695312 C 80.382812 194.695312 80.382812 194.695312 80.179688 194.894531 C 79.777344 195.097656 79.375 195.296875 78.769531 195.296875 C 79.375 195.296875 79.980469 195.296875 80.582031 195.5 C 80.582031 195.902344 80.582031 196.503906 80.785156 197.109375 C 80.984375 196.707031 81.1875 196.304688 81.1875 195.902344 C 81.1875 195.902344 81.1875 195.699219 81.1875 195.699219 C 81.1875 195.699219 81.390625 195.699219 81.390625 195.699219 C 81.792969 195.699219 82.394531 195.699219 82.796875 195.699219 C 82.394531 195.5 81.992188 195.5 81.589844 195.296875 C 81.792969 194.894531 81.792969 194.492188 81.992188 193.890625 C 81.992188 193.890625 81.589844 194.089844 81.390625 194.292969 C 81.1875 194.492188 81.1875 194.492188 80.785156 194.492188 C 80.785156 193.890625 80.582031 193.085938 80.179688 192.882812 Z M 80.179688 192.882812 " fill-opacity="1" fill-rule="nonzero"/><path fill="#000000" d="M 79.777344 186.046875 C 79.777344 186.046875 75.148438 189.261719 75.75 191.273438 C 76.554688 193.285156 97.496094 181.21875 97.09375 179.808594 C 96.894531 178.402344 91.457031 180.011719 91.457031 180.011719 L 91.457031 180.210938 C 91.457031 180.210938 96.289062 178.601562 96.691406 179.808594 C 97.09375 181.015625 79.578125 190.871094 76.355469 190.871094 C 76.152344 190.871094 75.953125 189.261719 79.980469 186.449219 Z M 79.777344 186.046875 " fill-opacity="1" fill-rule="nonzero"/><path fill="#333335" d="M 195.753906 158.890625 L 255.957031 160.097656 L 251.328125 230.296875 L 194.347656 230.898438 Z M 195.753906 158.890625 " fill-opacity="1" fill-rule="nonzero"/><path fill="#ff4a82" d="M 192.734375 154.867188 L 252.9375 156.074219 L 248.308594 226.273438 L 191.125 226.875 Z M 192.734375 154.867188 " fill-opacity="1" fill-rule="nonzero"/><path fill="#f9f1e4" d="M 195.753906 165.730469 L 218.710938 222.449219 L 244.882812 168.34375 L 235.21875 161.910156 L 220.722656 192.480469 L 204.816406 161.910156 Z M 195.753906 165.730469 " fill-opacity="1" fill-rule="nonzero"/><path fill="#473024" d="M 204.011719 200.929688 L 202.601562 195.097656 L 200.386719 202.136719 L 193.339844 200.726562 L 197.769531 204.550781 L 193.339844 208.171875 L 198.371094 208.171875 L 197.164062 214.003906 L 202.199219 209.777344 L 205.621094 213.199219 L 205.621094 208.574219 L 211.058594 208.773438 L 208.238281 205.757812 L 212.667969 204.148438 C 212.667969 204.148438 207.835938 203.140625 207.835938 202.738281 C 207.835938 202.335938 209.445312 197.710938 209.445312 197.710938 Z M 204.011719 200.929688 " fill-opacity="1" fill-rule="nonzero"/><path fill="#ffffff" d="M 197.96875 206.964844 C 197.96875 206.964844 198.574219 204.75 201.59375 203.542969 C 204.414062 202.335938 207.230469 203.542969 207.230469 203.542969 C 207.230469 203.542969 206.628906 205.355469 203.003906 206.761719 C 200.992188 207.566406 197.96875 206.964844 197.96875 206.964844 Z M 197.96875 206.964844 " fill-opacity="1" fill-rule="nonzero"/><path fill="#000000" d="M 202.800781 206.5625 C 204.613281 205.957031 203.808594 203.140625 201.996094 203.746094 C 201.996094 203.746094 201.996094 203.746094 201.796875 203.746094 C 199.984375 204.550781 200.789062 207.164062 202.800781 206.5625 C 202.601562 206.5625 202.601562 206.5625 202.800781 206.5625 Z M 202.800781 206.5625 " fill-opacity="1" fill-rule="nonzero"/><path fill="#000000" d="M 213.472656 189.664062 C 210.453125 191.878906 207.835938 194.492188 205.621094 197.308594 C 205.421875 197.511719 205.824219 197.914062 206.023438 197.511719 C 208.238281 194.695312 210.855469 192.28125 213.675781 190.066406 C 213.875 189.867188 213.675781 189.464844 213.472656 189.664062 Z M 213.472656 189.664062 " fill-opacity="1" fill-rule="nonzero"/><path fill="#000000" d="M 230.992188 185.441406 C 226.5625 187.253906 222.332031 189.664062 218.304688 192.28125 C 217.097656 193.085938 216.089844 193.890625 214.882812 194.695312 C 214.683594 194.894531 214.882812 195.296875 215.085938 195.097656 C 218.910156 192.28125 223.140625 189.867188 227.367188 187.652344 C 228.574219 187.050781 229.785156 186.449219 230.992188 186.046875 C 231.59375 185.644531 231.191406 185.242188 230.992188 185.441406 Z M 230.992188 185.441406 " fill-opacity="1" fill-rule="nonzero"/><path fill="#000000" d="M 224.144531 196.90625 C 220.925781 198.316406 217.703125 199.921875 214.480469 201.734375 C 214.28125 201.933594 214.480469 202.335938 214.683594 202.136719 C 217.902344 200.324219 221.125 198.714844 224.347656 197.308594 C 224.75 197.308594 224.546875 196.707031 224.144531 196.90625 Z M 224.144531 196.90625 " fill-opacity="1" fill-rule="nonzero"/><path fill="#000000" d="M 247.097656 189.261719 C 243.074219 190.46875 238.84375 191.675781 234.816406 192.683594 L 231.394531 193.6875 C 231.191406 193.6875 231.191406 194.292969 231.59375 194.089844 C 235.621094 192.882812 239.851562 191.675781 243.878906 190.671875 L 247.300781 189.664062 C 247.503906 189.664062 247.503906 189.0625 247.097656 189.261719 Z M 247.097656 189.261719 " fill-opacity="1" fill-rule="nonzero"/><path fill="#000000" d="M 237.03125 199.519531 C 232.804688 200.324219 228.574219 201.332031 224.546875 202.539062 C 223.339844 202.941406 222.132812 203.140625 221.125 203.542969 C 220.925781 203.542969 220.925781 204.148438 221.328125 203.945312 C 225.355469 202.738281 229.582031 201.53125 233.808594 200.527344 C 235.019531 200.324219 236.226562 199.921875 237.433594 199.722656 C 237.433594 199.921875 237.234375 199.519531 237.03125 199.519531 Z M 237.03125 199.519531 " fill-opacity="1" fill-rule="nonzero"/><path fill="#000000" d="M 243.273438 180.816406 C 240.65625 181.21875 237.835938 182.222656 235.421875 183.230469 C 235.21875 183.429688 235.421875 183.832031 235.621094 183.632812 C 238.039062 182.625 240.65625 181.820312 243.476562 181.21875 C 243.878906 181.21875 243.675781 180.816406 243.273438 180.816406 Z M 243.273438 180.816406 " fill-opacity="1" fill-rule="nonzero"/><g clip-path="url(#e3132fb8e8)"><path fill="#f9f1e4" d="M 313.746094 152.457031 C 314.953125 152.457031 372.339844 153.664062 372.339844 153.664062 L 374.957031 231.703125 L 312.539062 229.691406 Z M 313.746094 152.457031 " fill-opacity="1" fill-rule="nonzero"/></g><path fill="#282627" d="M 328.242188 160.5 L 328.042969 226.675781 L 367.105469 227.277344 L 367.304688 214.605469 L 338.511719 213.800781 L 336.5 160.902344 Z M 328.242188 160.5 " fill-opacity="1" fill-rule="nonzero"/><path fill="#ff4a82" d="M 326.429688 158.488281 L 326.230469 224.664062 L 365.292969 225.265625 L 365.695312 212.59375 L 336.902344 211.789062 L 334.886719 158.890625 Z M 326.429688 158.488281 " fill-opacity="1" fill-rule="nonzero"/><path fill="#576bff" d="M 345.960938 199.921875 L 343.546875 199.117188 L 344.550781 201.734375 L 342.742188 203.746094 L 344.957031 203.34375 L 346.363281 205.554688 L 346.164062 202.941406 L 348.78125 202.136719 L 346.96875 201.53125 L 348.175781 199.320312 Z M 345.960938 199.921875 " fill-opacity="1" fill-rule="nonzero"/><path fill="#dd76ff" d="M 368.511719 168.546875 C 368.3125 168.546875 366.699219 170.558594 366.699219 170.558594 L 369.722656 169.753906 L 370.324219 172.570312 L 370.929688 169.550781 L 373.75 169.753906 L 371.535156 168.746094 L 372.742188 166.132812 L 370.726562 167.941406 L 368.511719 165.730469 Z M 368.511719 168.546875 " fill-opacity="1" fill-rule="nonzero"/><path fill="#ff4824" d="M 360.660156 189.0625 C 360.460938 189.0625 357.238281 188.660156 357.238281 188.660156 L 359.855469 191.074219 C 359.855469 191.074219 359.050781 194.292969 359.050781 194.089844 C 359.050781 194.089844 361.464844 191.476562 361.464844 191.476562 L 364.285156 193.890625 L 362.472656 190.46875 L 364.890625 187.253906 L 362.070312 188.457031 L 360.863281 186.046875 Z M 360.660156 189.0625 " fill-opacity="1" fill-rule="nonzero"/><path fill="#b7b73d" d="M 350.191406 174.179688 C 350.59375 175.789062 351.800781 177.195312 353.210938 178 C 355.222656 179.003906 357.839844 178.199219 359.855469 177.195312 C 360.257812 176.992188 360.863281 176.589844 361.265625 176.191406 C 362.472656 175.183594 362.875 173.574219 363.078125 172.167969 C 363.277344 171.160156 363.277344 169.953125 362.875 168.949219 C 362.070312 167.136719 360.257812 166.332031 358.445312 165.929688 C 357.4375 165.730469 356.632812 165.527344 355.625 165.730469 C 351.800781 166.132812 349.183594 170.757812 350.191406 174.179688 Z M 350.191406 174.179688 " fill-opacity="1" fill-rule="nonzero"/><g clip-path="url(#bf3c313afa)"><g clip-path="url(#8eb4a47364)"><path fill="#ffffff" d="M 364.484375 171.363281 C 363.882812 171.765625 363.277344 172.167969 362.875 172.570312 C 362.675781 172.367188 362.472656 171.964844 362.472656 171.765625 C 362.269531 171.5625 362.269531 171.363281 362.070312 170.960938 C 362.675781 170.558594 363.480469 170.15625 364.082031 169.550781 L 364.484375 169.351562 C 364.484375 169.351562 364.484375 169.148438 364.484375 169.148438 C 363.679688 169.550781 362.875 170.15625 362.070312 170.558594 C 361.667969 169.753906 361.265625 169.148438 361.0625 168.34375 C 361.867188 167.941406 362.675781 167.339844 363.480469 166.9375 C 363.679688 166.9375 363.679688 166.734375 363.882812 166.734375 C 363.882812 166.734375 363.882812 166.535156 363.882812 166.535156 C 362.875 167.136719 362.070312 167.539062 361.0625 168.144531 C 361.0625 167.941406 360.863281 167.742188 360.863281 167.742188 C 360.660156 167.136719 360.257812 166.535156 360.054688 165.929688 C 360.460938 165.730469 361.0625 165.527344 361.464844 165.128906 C 361.464844 165.128906 361.464844 164.925781 361.464844 164.925781 C 361.0625 165.128906 360.460938 165.328125 360.054688 165.730469 C 360.054688 165.730469 360.054688 165.730469 360.054688 165.527344 C 360.054688 165.527344 359.855469 165.527344 359.855469 165.527344 C 359.855469 165.527344 359.855469 165.527344 359.855469 165.730469 C 359.050781 166.132812 358.445312 166.535156 357.640625 166.9375 C 357.4375 166.332031 357.238281 165.730469 356.835938 165.128906 C 356.835938 165.128906 356.632812 165.128906 356.632812 165.128906 C 356.835938 165.730469 357.035156 166.332031 357.4375 166.9375 C 357.035156 167.136719 356.835938 167.339844 356.433594 167.539062 C 356.03125 167.742188 355.828125 167.941406 355.425781 167.941406 C 355.023438 166.9375 354.621094 166.132812 354.21875 165.128906 C 354.21875 165.128906 354.015625 165.128906 354.015625 165.128906 C 354.417969 166.132812 354.820312 167.136719 355.222656 168.144531 C 354.621094 168.546875 354.015625 168.746094 353.410156 169.148438 C 353.410156 169.148438 353.410156 168.949219 353.210938 168.746094 C 352.808594 167.742188 352.40625 166.734375 352.203125 165.527344 C 352.203125 165.527344 352.003906 165.527344 352.003906 165.527344 C 352.40625 166.734375 352.808594 167.941406 353.210938 168.949219 C 352.605469 169.351562 352.203125 169.550781 351.601562 169.953125 C 351.398438 169.953125 351.398438 170.15625 351.195312 170.15625 C 350.996094 169.351562 350.792969 168.546875 350.59375 167.742188 C 350.59375 167.742188 350.390625 167.742188 350.390625 167.742188 C 350.59375 168.546875 350.792969 169.351562 350.996094 170.15625 C 350.191406 170.558594 349.585938 171.160156 348.78125 171.5625 C 348.78125 171.5625 348.78125 171.765625 348.78125 171.765625 C 349.386719 171.363281 350.191406 170.757812 350.792969 170.355469 C 350.996094 170.960938 350.996094 171.363281 351.195312 171.964844 C 351.398438 172.367188 351.398438 172.972656 351.601562 173.375 C 350.996094 173.777344 350.390625 174.179688 349.789062 174.78125 C 349.789062 174.78125 349.585938 174.984375 349.386719 174.984375 C 349.386719 174.984375 349.386719 175.183594 349.386719 175.183594 C 350.191406 174.78125 350.792969 174.179688 351.601562 173.574219 C 351.800781 174.378906 352.203125 175.183594 352.40625 175.988281 C 351.800781 176.390625 351.195312 176.792969 350.59375 177.195312 L 350.191406 177.394531 C 350.191406 177.394531 350.191406 177.597656 350.191406 177.597656 L 352.40625 176.191406 C 352.808594 176.992188 353.007812 177.796875 353.410156 178.601562 C 353.410156 178.601562 353.613281 178.601562 353.613281 178.601562 C 353.210938 177.796875 353.007812 176.992188 352.605469 176.191406 L 353.007812 175.988281 C 353.613281 175.585938 354.417969 175.183594 355.023438 174.582031 C 355.222656 175.183594 355.625 175.789062 355.828125 176.390625 C 355.828125 176.390625 355.828125 176.390625 355.828125 176.589844 C 355.023438 177.195312 354.417969 177.597656 353.613281 178.199219 C 353.613281 178.199219 353.613281 178.402344 353.613281 178.402344 C 354.417969 177.796875 355.023438 177.394531 355.828125 176.792969 C 356.230469 177.796875 356.632812 178.601562 357.238281 179.609375 C 357.238281 179.609375 357.4375 179.609375 357.4375 179.609375 C 357.035156 178.601562 356.433594 177.796875 356.03125 176.792969 C 356.632812 176.390625 357.238281 175.988281 357.839844 175.585938 C 357.839844 175.585938 358.042969 175.386719 358.246094 175.386719 C 358.246094 175.585938 358.445312 175.789062 358.445312 175.789062 C 358.847656 176.792969 359.453125 177.796875 359.855469 178.804688 C 359.855469 178.804688 360.054688 178.804688 360.054688 178.804688 C 359.453125 177.597656 358.847656 176.390625 358.246094 175.386719 C 358.847656 174.984375 359.453125 174.378906 360.257812 173.976562 C 360.460938 174.179688 360.460938 174.378906 360.660156 174.78125 C 361.0625 175.789062 361.667969 176.589844 362.070312 177.394531 C 362.070312 177.394531 362.269531 177.394531 362.269531 177.394531 C 361.667969 176.191406 360.863281 175.183594 360.460938 173.976562 C 361.0625 173.574219 361.464844 173.171875 362.070312 172.972656 C 362.269531 172.769531 362.472656 172.769531 362.472656 172.570312 C 362.472656 172.769531 362.675781 172.972656 362.875 173.171875 C 363.277344 173.777344 363.679688 174.582031 363.882812 175.183594 C 363.882812 175.183594 364.082031 175.183594 364.082031 175.183594 C 363.679688 174.378906 363.078125 173.375 362.675781 172.570312 C 363.480469 172.167969 364.082031 171.765625 364.484375 171.363281 C 364.6875 171.363281 364.6875 171.160156 364.484375 171.363281 Z M 361.265625 169.550781 C 361.464844 169.953125 361.667969 170.355469 361.867188 170.757812 C 361.867188 170.757812 361.667969 170.757812 361.667969 170.960938 C 361.0625 171.363281 360.460938 171.765625 359.855469 172.167969 C 359.453125 171.363281 359.050781 170.558594 358.847656 169.753906 C 359.453125 169.351562 360.257812 168.949219 360.863281 168.546875 C 360.863281 168.546875 360.863281 168.546875 361.0625 168.546875 C 360.863281 168.949219 361.0625 169.148438 361.265625 169.550781 Z M 359.652344 172.167969 C 359.453125 172.367188 359.25 172.367188 359.050781 172.570312 C 358.648438 172.769531 358.246094 173.171875 357.640625 173.375 C 357.238281 172.570312 356.835938 171.765625 356.632812 170.960938 C 357.035156 170.757812 357.4375 170.355469 357.839844 170.15625 C 358.042969 169.953125 358.246094 169.953125 358.445312 169.753906 C 358.445312 169.753906 358.445312 169.953125 358.648438 169.953125 C 358.847656 170.757812 359.25 171.5625 359.652344 172.167969 Z M 358.445312 166.535156 C 358.847656 166.332031 359.25 166.132812 359.652344 165.929688 C 360.054688 166.734375 360.257812 167.539062 360.660156 168.34375 C 359.855469 168.746094 359.25 169.148438 358.445312 169.753906 C 358.246094 169.148438 358.042969 168.546875 357.640625 168.144531 C 357.640625 167.941406 357.4375 167.742188 357.238281 167.339844 C 357.839844 166.9375 358.246094 166.734375 358.445312 166.535156 Z M 357.4375 167.339844 C 357.839844 168.144531 358.246094 168.949219 358.445312 169.753906 C 358.445312 169.753906 358.246094 169.953125 358.042969 169.953125 C 357.4375 170.355469 357.035156 170.558594 356.433594 170.960938 C 356.03125 170.15625 355.625 169.148438 355.425781 168.34375 C 356.03125 167.941406 356.632812 167.539062 357.4375 167.339844 Z M 353.613281 169.351562 C 354.21875 168.949219 354.621094 168.746094 355.222656 168.34375 C 355.625 169.148438 355.828125 169.953125 356.230469 170.757812 C 356.230469 170.757812 356.230469 170.960938 356.230469 170.960938 C 355.828125 171.160156 355.625 171.363281 355.222656 171.5625 C 354.820312 171.765625 354.621094 171.964844 354.21875 172.167969 C 353.816406 171.160156 353.410156 170.355469 353.210938 169.351562 C 353.410156 169.550781 353.613281 169.351562 353.613281 169.351562 Z M 351.195312 170.960938 C 351.800781 170.558594 352.605469 170.15625 353.210938 169.753906 C 353.410156 170.355469 353.613281 170.960938 354.015625 171.5625 C 354.015625 171.765625 354.21875 172.167969 354.417969 172.367188 C 354.015625 172.769531 353.410156 172.972656 353.007812 173.375 C 352.808594 173.574219 352.605469 173.777344 352.40625 173.777344 C 351.800781 172.972656 351.398438 171.964844 351.195312 170.960938 Z M 353.613281 176.191406 C 353.410156 176.390625 353.210938 176.390625 353.007812 176.589844 C 352.808594 176.191406 352.605469 175.585938 352.40625 174.984375 C 352.40625 174.78125 352.203125 174.378906 352.203125 174.179688 C 352.40625 174.179688 352.40625 173.976562 352.605469 173.976562 C 353.210938 173.574219 353.816406 173.171875 354.417969 172.769531 C 354.820312 173.574219 355.023438 174.378906 355.425781 175.183594 C 354.820312 175.386719 354.21875 175.789062 353.613281 176.191406 Z M 355.222656 174.582031 C 354.820312 173.976562 354.621094 173.171875 354.417969 172.570312 C 354.621094 172.367188 354.820312 172.167969 355.222656 172.167969 C 355.625 171.964844 356.03125 171.5625 356.632812 171.363281 C 357.035156 172.167969 357.4375 172.972656 357.640625 173.777344 C 357.238281 173.976562 356.835938 174.378906 356.433594 174.582031 C 356.230469 174.78125 355.828125 174.984375 355.625 175.183594 C 355.425781 174.78125 355.425781 174.78125 355.222656 174.582031 Z M 356.433594 176.992188 C 356.03125 176.390625 355.828125 175.585938 355.425781 174.984375 C 355.625 174.78125 355.828125 174.78125 356.03125 174.582031 L 357.640625 173.574219 C 357.839844 174.179688 358.246094 174.78125 358.445312 175.386719 C 357.839844 175.988281 357.035156 176.589844 356.433594 176.992188 Z M 360.460938 174.179688 C 359.855469 174.582031 359.25 174.984375 358.648438 175.386719 C 358.445312 174.78125 358.042969 174.378906 357.839844 173.777344 C 357.839844 173.777344 357.839844 173.777344 357.839844 173.574219 C 358.246094 173.375 358.445312 173.171875 358.847656 172.972656 C 359.25 172.769531 359.453125 172.570312 359.855469 172.367188 C 359.855469 172.972656 360.257812 173.574219 360.460938 174.179688 C 360.460938 173.976562 360.460938 174.179688 360.460938 174.179688 Z M 360.660156 173.976562 C 360.460938 173.574219 360.257812 173.171875 360.054688 172.769531 C 360.054688 172.570312 359.855469 172.367188 359.855469 172.167969 C 360.460938 171.765625 360.863281 171.5625 361.464844 171.160156 C 361.667969 171.160156 361.867188 170.960938 362.070312 170.757812 C 362.269531 171.363281 362.675781 171.765625 362.875 172.367188 C 362.070312 172.972656 361.265625 173.375 360.660156 173.976562 Z M 360.660156 173.976562 " fill-opacity="1" fill-rule="nonzero"/></g></g><path fill="#000000" d="M 350.792969 168.144531 C 350.792969 168.144531 346.363281 166.535156 344.148438 167.539062 C 341.933594 168.546875 366.5 179.609375 368.714844 178 C 370.929688 176.390625 364.484375 172.570312 364.484375 172.570312 L 364.285156 172.972656 C 364.285156 172.972656 368.511719 175.183594 368.511719 176.792969 C 368.3125 178.402344 350.59375 173.171875 345.359375 167.941406 C 345.15625 167.742188 347.171875 167.339844 350.59375 168.546875 Z M 350.792969 168.144531 " fill-opacity="1" fill-rule="nonzero"/><path fill="#ffbf1f" d="M 328.847656 203.34375 C 329.652344 203.34375 330.457031 203.140625 331.261719 202.941406 C 332.269531 202.738281 333.074219 202.539062 333.882812 202.136719 C 335.492188 201.332031 336.699219 199.722656 337.304688 197.914062 C 337.707031 196.101562 337.707031 194.292969 336.902344 192.480469 C 336.097656 190.46875 334.6875 188.660156 332.671875 188.257812 C 331.667969 188.054688 330.660156 187.855469 329.652344 188.054688 C 328.042969 188.054688 326.429688 188.457031 325.023438 189.261719 C 323.210938 190.269531 322.203125 192.078125 321.597656 194.089844 C 321.195312 195.902344 320.792969 199.519531 322.203125 201.128906 C 324.015625 202.738281 326.632812 203.542969 328.847656 203.34375 Z M 328.847656 203.34375 " fill-opacity="1" fill-rule="nonzero"/><g clip-path="url(#3c2d8cbb27)"><g clip-path="url(#3773b986ca)"><path fill="#ffffff" d="M 341.933594 193.890625 C 340.726562 194.492188 339.519531 195.296875 338.511719 195.902344 C 338.109375 195.097656 337.503906 194.292969 337.101562 193.488281 C 337.304688 193.488281 337.304688 193.285156 337.503906 193.285156 C 338.914062 192.28125 340.527344 191.476562 342.136719 190.671875 C 342.335938 190.671875 342.136719 190.269531 341.933594 190.46875 C 340.324219 191.476562 338.511719 192.28125 336.902344 193.285156 C 336.5 192.683594 336.296875 192.078125 335.894531 191.476562 C 335.894531 191.273438 335.691406 191.074219 335.691406 191.074219 C 335.894531 191.074219 335.894531 190.871094 336.097656 190.871094 C 337.503906 190.066406 339.117188 189.261719 340.527344 188.660156 C 340.726562 188.660156 340.527344 188.257812 340.324219 188.457031 C 338.714844 189.261719 336.902344 190.066406 335.492188 191.074219 C 335.089844 190.46875 334.886719 189.867188 334.484375 189.464844 C 334.484375 189.261719 334.082031 189.464844 334.285156 189.664062 L 335.289062 191.273438 C 334.484375 191.675781 333.882812 192.078125 333.074219 192.480469 C 332.875 192.078125 332.671875 191.675781 332.472656 191.476562 C 332.269531 191.074219 332.070312 190.46875 331.867188 190.066406 C 332.070312 190.066406 332.070312 189.867188 332.269531 189.867188 C 333.277344 189.261719 334.484375 188.660156 335.691406 188.054688 C 335.894531 188.054688 335.691406 187.652344 335.492188 187.855469 C 334.285156 188.457031 333.074219 189.261719 331.867188 189.867188 C 331.667969 189.261719 331.261719 188.660156 331.0625 188.054688 C 331.0625 187.855469 330.660156 188.054688 330.859375 188.257812 C 331.0625 188.859375 331.261719 189.464844 331.667969 190.066406 C 331.0625 190.46875 330.257812 190.871094 329.652344 191.273438 C 329.25 191.476562 328.644531 191.878906 328.242188 192.078125 C 327.640625 190.671875 326.832031 189.464844 326.230469 188.054688 C 326.230469 187.855469 325.828125 188.054688 326.027344 188.257812 C 326.632812 189.664062 327.4375 191.074219 328.042969 192.28125 C 327.035156 192.882812 326.230469 193.488281 325.425781 193.890625 C 325.425781 193.6875 325.222656 193.488281 325.023438 193.285156 C 324.417969 192.078125 323.8125 190.871094 323.410156 189.664062 C 323.410156 189.464844 323.007812 189.664062 323.210938 189.867188 C 323.8125 191.273438 324.417969 192.683594 325.222656 194.292969 C 324.820312 194.492188 324.417969 194.695312 324.015625 195.097656 C 323.613281 195.5 323.007812 195.699219 322.605469 196.101562 C 322.203125 195.296875 322 194.492188 321.800781 193.6875 C 321.800781 193.488281 321.398438 193.6875 321.398438 193.6875 C 321.597656 194.492188 322 195.296875 322.203125 196.101562 C 321.800781 196.503906 321.195312 196.707031 320.792969 197.109375 C 320.59375 197.308594 320.792969 197.511719 320.996094 197.308594 C 321.398438 196.90625 322 196.707031 322.402344 196.304688 C 322.808594 197.308594 323.210938 198.113281 323.613281 198.917969 C 322.808594 199.519531 322 200.125 321.195312 200.726562 C 320.996094 200.929688 321.195312 201.128906 321.398438 200.929688 C 322.203125 200.324219 322.808594 199.722656 323.613281 199.320312 C 324.015625 200.324219 324.617188 201.332031 325.222656 202.539062 C 324.214844 203.34375 323.410156 204.148438 322.605469 204.953125 C 322.402344 205.152344 322.605469 205.355469 322.808594 205.152344 C 323.613281 204.347656 324.617188 203.542969 325.425781 202.941406 C 325.625 203.140625 325.625 203.34375 325.828125 203.542969 C 326.429688 204.347656 327.035156 205.355469 327.640625 206.160156 C 327.839844 206.359375 328.042969 206.160156 327.839844 205.957031 C 327.839844 205.957031 327.839844 205.757812 327.640625 205.757812 C 328.445312 204.953125 329.25 204.347656 330.054688 203.542969 C 330.457031 204.347656 331.0625 205.152344 331.667969 205.957031 C 331.667969 206.160156 332.070312 205.957031 331.867188 205.757812 C 331.261719 204.953125 330.859375 204.148438 330.257812 203.34375 C 331.0625 202.539062 332.070312 201.933594 332.875 201.128906 C 333.074219 201.53125 333.277344 201.734375 333.476562 202.136719 C 334.285156 203.34375 335.089844 204.550781 336.097656 205.554688 C 336.296875 205.757812 336.5 205.554688 336.296875 205.355469 C 335.089844 203.945312 334.082031 202.539062 333.074219 201.128906 C 334.082031 200.324219 335.089844 199.722656 336.097656 198.917969 C 336.5 199.320312 336.699219 199.921875 337.101562 200.527344 C 337.707031 201.53125 338.511719 202.738281 339.316406 203.746094 C 339.519531 203.945312 339.71875 203.746094 339.519531 203.542969 C 338.511719 201.933594 337.304688 200.527344 336.5 198.714844 C 337.304688 198.316406 337.90625 197.710938 338.714844 197.308594 L 339.316406 198.515625 C 339.71875 199.320312 340.324219 200.125 340.726562 200.929688 C 340.726562 201.128906 341.128906 200.929688 340.929688 200.726562 C 340.324219 199.519531 339.519531 198.316406 338.914062 197.109375 C 340.121094 196.304688 341.332031 195.699219 342.335938 195.097656 C 342.136719 194.089844 342.136719 193.890625 341.933594 193.890625 Z M 335.289062 190.871094 L 336.699219 193.285156 C 335.894531 193.6875 335.289062 194.292969 334.484375 194.695312 C 334.082031 193.890625 333.476562 193.085938 333.074219 192.28125 C 333.679688 191.878906 334.484375 191.476562 335.289062 190.871094 Z M 333.277344 193.6875 C 333.476562 194.089844 333.679688 194.492188 333.882812 194.894531 C 333.882812 194.894531 333.679688 195.097656 333.476562 195.097656 C 332.472656 195.699219 331.667969 196.304688 330.660156 197.109375 C 330.257812 196.304688 329.652344 195.296875 329.25 194.492188 C 330.257812 193.890625 331.464844 193.085938 332.472656 192.480469 C 332.875 192.882812 333.074219 193.285156 333.277344 193.6875 Z M 330.660156 197.308594 C 329.855469 197.914062 328.847656 198.515625 328.042969 199.320312 C 328.042969 199.320312 327.839844 199.117188 327.839844 198.917969 C 327.4375 198.113281 326.832031 197.308594 326.429688 196.304688 C 327.035156 195.902344 327.640625 195.5 328.242188 195.097656 C 328.644531 194.894531 328.847656 194.695312 329.25 194.492188 C 329.25 194.492188 329.25 194.492188 329.25 194.695312 C 329.652344 195.5 330.257812 196.304688 330.660156 197.308594 Z M 331.464844 189.664062 C 331.867188 190.46875 332.269531 191.273438 332.671875 192.078125 C 332.671875 192.078125 332.472656 192.078125 332.472656 192.28125 C 331.464844 192.882812 330.457031 193.488281 329.453125 194.089844 C 329.046875 193.285156 328.644531 192.480469 328.242188 191.675781 C 329.25 191.074219 330.257812 190.269531 331.464844 189.664062 Z M 326.230469 192.882812 C 326.832031 192.480469 327.238281 192.28125 327.839844 191.878906 C 328.242188 192.683594 328.644531 193.488281 329.046875 194.292969 C 328.042969 194.894531 327.238281 195.5 326.429688 196.101562 C 326.027344 195.296875 325.625 194.492188 325.222656 193.6875 C 325.425781 193.285156 325.828125 193.085938 326.230469 192.882812 Z M 322.203125 195.699219 C 322.203125 195.699219 322.203125 195.5 322.203125 195.699219 C 323.007812 194.894531 324.015625 194.292969 324.820312 193.6875 C 325.023438 194.292969 325.425781 194.894531 325.828125 195.5 C 326.027344 195.699219 326.027344 195.902344 326.230469 196.101562 C 325.828125 196.304688 325.425781 196.707031 325.023438 196.90625 C 324.617188 197.308594 324.015625 197.710938 323.613281 197.914062 C 323.007812 197.308594 322.605469 196.503906 322.203125 195.699219 Z M 323.410156 198.515625 C 324.417969 197.914062 325.222656 197.109375 326.230469 196.503906 C 326.632812 197.511719 327.238281 198.515625 327.839844 199.320312 C 327.238281 199.722656 326.832031 200.125 326.230469 200.527344 C 325.828125 200.929688 325.425781 201.128906 325.222656 201.53125 C 324.617188 200.527344 324.015625 199.519531 323.410156 198.515625 Z M 327.238281 204.550781 C 326.632812 203.542969 326.027344 202.738281 325.425781 201.734375 C 326.230469 200.929688 327.238281 200.324219 328.042969 199.519531 C 328.445312 200.125 328.847656 200.929688 329.25 201.53125 C 329.453125 201.734375 329.453125 201.933594 329.652344 202.136719 C 328.644531 203.140625 327.839844 203.945312 327.238281 204.550781 Z M 330.054688 201.933594 C 330.054688 201.933594 329.855469 202.136719 329.855469 202.136719 C 329.25 201.128906 328.847656 200.324219 328.242188 199.320312 C 328.644531 198.917969 329.25 198.515625 329.652344 198.113281 C 330.054688 197.914062 330.457031 197.511719 330.859375 197.308594 C 331.261719 198.113281 331.867188 199.117188 332.472656 199.921875 C 331.667969 200.726562 330.859375 201.332031 330.054688 201.933594 Z M 332.671875 199.921875 C 332.269531 199.320312 332.070312 198.917969 331.667969 198.316406 C 331.464844 197.914062 331.261719 197.710938 331.0625 197.308594 C 332.070312 196.503906 333.074219 195.902344 334.082031 195.097656 C 334.484375 195.902344 335.089844 196.707031 335.492188 197.511719 C 334.6875 198.515625 333.679688 199.117188 332.671875 199.921875 Z M 335.894531 197.511719 C 335.691406 197.308594 335.691406 197.109375 335.492188 196.90625 C 335.089844 196.304688 334.6875 195.699219 334.484375 195.097656 C 335.289062 194.695312 335.894531 194.089844 336.699219 193.6875 L 338.109375 196.101562 C 337.304688 196.503906 336.699219 197.109375 335.894531 197.511719 Z M 335.894531 197.511719 " fill-opacity="1" fill-rule="nonzero"/></g></g><path fill="#ff4824" d="M 341.933594 184.839844 C 342.335938 184.4375 342.941406 183.832031 343.144531 183.027344 C 343.144531 182.828125 343.34375 182.625 343.546875 182.625 C 343.546875 182.625 343.746094 182.625 343.746094 182.625 C 344.550781 182.828125 345.15625 183.230469 345.761719 183.832031 C 345.558594 183.230469 345.15625 182.625 344.753906 182.222656 C 345.359375 181.820312 345.960938 181.417969 346.164062 180.816406 C 345.359375 180.816406 344.753906 180.816406 343.949219 180.816406 C 343.949219 180.011719 343.746094 179.40625 343.746094 178.601562 C 343.746094 178.402344 343.546875 178.199219 343.34375 178.199219 C 343.34375 178.199219 343.144531 178.402344 343.144531 178.402344 C 342.742188 179.207031 342.539062 179.808594 342.136719 180.613281 C 342.136719 180.613281 342.136719 180.816406 341.933594 180.816406 C 341.933594 180.816406 341.734375 180.816406 341.53125 180.816406 C 340.929688 180.816406 340.121094 180.816406 339.519531 180.816406 C 339.519531 180.816406 341.53125 181.820312 341.734375 182.222656 C 342.742188 182.828125 342.136719 183.832031 341.933594 184.839844 Z M 341.933594 184.839844 " fill-opacity="1" fill-rule="nonzero"/><path fill="#576bff" d="M 313.34375 201.53125 C 313.746094 202.335938 314.351562 202.941406 314.753906 203.746094 C 314.148438 204.550781 313.542969 205.355469 313.140625 206.160156 C 313.949219 205.757812 314.550781 205.355469 315.355469 204.75 C 315.757812 205.554688 316.164062 206.359375 316.566406 207.164062 C 316.765625 206.160156 316.765625 205.355469 316.566406 204.347656 C 317.167969 204.148438 317.972656 203.945312 318.578125 203.746094 C 318.175781 203.542969 317.570312 203.34375 316.96875 203.140625 C 317.167969 202.539062 317.371094 201.933594 317.371094 201.128906 C 317.371094 201.332031 316.765625 201.734375 316.566406 201.933594 C 316.363281 202.136719 316.164062 202.539062 315.757812 202.539062 C 315.355469 202.539062 314.953125 202.136719 314.550781 201.933594 C 314.148438 201.933594 313.746094 201.734375 313.34375 201.53125 Z M 313.34375 201.53125 " fill-opacity="1" fill-rule="nonzero"/><path fill="#323863" d="M 325.425781 207.769531 C 325.425781 208.574219 325.625 209.175781 325.625 209.980469 C 325.625 209.980469 325.625 210.179688 325.625 210.179688 C 325.625 210.179688 325.425781 210.382812 325.425781 210.382812 C 324.820312 210.582031 324.214844 210.785156 323.613281 210.984375 C 324.417969 210.984375 325.222656 210.984375 326.027344 211.1875 C 326.027344 211.789062 326.027344 212.59375 326.230469 213.199219 C 326.429688 212.59375 326.632812 211.992188 326.832031 211.589844 C 326.832031 211.589844 326.832031 211.386719 327.035156 211.386719 C 327.035156 211.386719 327.238281 211.386719 327.4375 211.1875 C 328.042969 211.1875 328.644531 210.984375 329.25 211.1875 C 328.644531 210.984375 328.042969 210.785156 327.640625 210.785156 C 327.839844 210.179688 328.042969 209.578125 328.242188 208.976562 C 328.242188 209.175781 327.640625 209.378906 327.4375 209.378906 C 327.238281 209.578125 327.035156 209.777344 326.632812 209.578125 C 326.230469 209.175781 325.828125 208.171875 325.425781 207.769531 Z M 325.425781 207.769531 " fill-opacity="1" fill-rule="nonzero"/><path fill="#000000" d="M 320.59375 197.710938 C 320.59375 197.710938 314.351562 201.933594 315.355469 204.550781 C 316.363281 207.164062 344.351562 191.273438 343.949219 189.261719 C 343.546875 187.253906 336.5 189.664062 336.5 189.664062 L 336.699219 190.066406 C 336.699219 190.066406 343.144531 188.054688 343.546875 189.464844 C 343.949219 191.074219 320.792969 204.148438 316.363281 204.148438 C 315.960938 204.148438 315.960938 201.933594 321.195312 198.113281 Z M 320.59375 197.710938 " fill-opacity="1" fill-rule="nonzero"/><path fill="#f5f7ff" d="M 0.0429688 150.445312 C 1.65625 149.640625 58.234375 148.835938 58.234375 148.835938 L 51.386719 226.273438 L 0.445312 227.480469 Z M 0.0429688 150.445312 " fill-opacity="1" fill-rule="nonzero"/><path fill="#000000" d="M 49.375 189.0625 C 46.957031 189.261719 44.542969 189.464844 42.328125 189.664062 C 42.328125 187.652344 42.328125 185.644531 42.328125 183.632812 C 42.328125 182.625 42.328125 181.820312 42.328125 180.816406 C 44.140625 180.613281 45.953125 180.414062 47.5625 180.414062 C 47.761719 180.414062 47.761719 180.011719 47.5625 180.011719 C 45.75 180.210938 43.9375 180.414062 42.328125 180.414062 C 42.328125 178.601562 42.328125 176.992188 42.328125 175.183594 C 42.328125 174.984375 41.925781 174.984375 41.925781 175.183594 C 41.925781 176.992188 41.925781 178.601562 41.925781 180.414062 C 38.902344 180.613281 35.882812 180.816406 32.664062 181.015625 C 32.664062 181.015625 32.460938 181.015625 32.460938 181.015625 C 32.460938 179.003906 32.460938 176.992188 32.664062 174.984375 C 32.664062 174.78125 32.257812 174.78125 32.257812 174.984375 C 32.257812 176.992188 32.058594 179.003906 32.058594 181.015625 C 29.039062 181.21875 26.21875 181.21875 23.199219 181.417969 C 23.199219 179.609375 22.996094 177.796875 22.996094 176.191406 C 22.996094 175.988281 22.59375 175.988281 22.59375 176.191406 C 22.59375 178 22.796875 179.808594 22.796875 181.417969 C 21.183594 181.417969 19.574219 181.417969 17.761719 181.417969 C 16.152344 181.417969 14.742188 181.417969 13.132812 181.417969 C 13.132812 179.808594 13.132812 178.199219 13.332031 176.589844 C 13.332031 176.390625 12.929688 176.390625 12.929688 176.589844 C 12.929688 178.199219 12.730469 179.808594 12.730469 181.417969 C 11.519531 181.417969 10.515625 181.417969 9.304688 181.417969 C 9.105469 181.417969 9.105469 181.820312 9.304688 181.820312 C 10.515625 181.820312 11.519531 181.820312 12.730469 181.820312 C 12.730469 184.839844 12.730469 187.855469 12.730469 190.671875 C 12.730469 190.671875 12.730469 190.871094 12.730469 190.871094 C 11.921875 190.871094 10.917969 190.871094 10.109375 190.871094 C 9.910156 190.871094 9.910156 191.273438 10.109375 191.273438 C 11.117188 191.273438 11.921875 191.273438 12.929688 191.273438 C 12.929688 194.089844 13.132812 196.90625 13.332031 199.722656 C 12.324219 199.722656 11.519531 199.722656 10.515625 199.722656 C 10.3125 199.722656 10.3125 200.125 10.515625 200.125 C 11.519531 200.125 12.324219 200.125 13.332031 200.125 C 13.535156 201.734375 13.535156 203.34375 13.734375 204.953125 C 13.9375 206.160156 13.9375 207.367188 14.136719 208.574219 C 12.730469 208.574219 11.320312 208.371094 9.910156 208.371094 C 9.707031 208.371094 9.707031 208.773438 9.910156 208.773438 C 11.320312 208.773438 12.730469 208.976562 14.136719 208.976562 C 14.339844 210.179688 14.339844 211.589844 14.539062 212.796875 C 14.539062 212.996094 14.945312 212.996094 14.945312 212.796875 C 14.339844 211.789062 14.136719 210.582031 14.136719 209.378906 C 17.160156 209.578125 19.976562 209.578125 22.996094 209.578125 C 22.996094 210.382812 22.996094 210.984375 22.996094 211.789062 C 22.996094 211.992188 23.398438 211.992188 23.398438 211.789062 C 23.398438 210.984375 23.398438 210.382812 23.398438 209.578125 C 24.003906 209.578125 24.40625 209.578125 25.011719 209.578125 C 27.828125 209.578125 30.648438 209.378906 33.46875 209.175781 C 33.667969 210.179688 33.667969 210.984375 33.871094 211.992188 C 33.871094 212.191406 34.273438 212.191406 34.273438 211.992188 C 34.070312 210.984375 34.070312 210.179688 33.871094 209.175781 C 36.085938 208.976562 38.300781 208.773438 40.515625 208.574219 C 41.117188 208.574219 41.523438 208.371094 42.125 208.371094 C 42.125 210.179688 42.125 211.992188 42.125 213.800781 C 42.125 214.003906 42.527344 214.003906 42.527344 213.800781 C 42.527344 211.992188 42.527344 210.179688 42.527344 208.371094 C 44.742188 208.171875 46.957031 207.769531 48.972656 207.367188 C 49.171875 207.367188 49.171875 206.964844 48.769531 206.964844 C 46.554688 207.367188 44.542969 207.566406 42.328125 207.769531 C 42.328125 204.75 42.328125 201.734375 42.125 198.714844 C 44.339844 198.515625 46.554688 198.113281 48.769531 197.710938 C 48.972656 197.710938 48.972656 197.308594 48.570312 197.308594 C 46.355469 197.710938 44.140625 197.914062 42.125 198.316406 C 42.125 195.699219 42.125 192.882812 42.125 190.269531 C 44.542969 190.066406 46.957031 189.867188 49.171875 189.664062 C 49.574219 189.464844 49.574219 189.0625 49.375 189.0625 Z M 41.925781 198.316406 C 39.105469 198.714844 36.488281 198.917969 33.667969 199.117188 C 33.46875 199.117188 33.066406 199.117188 32.863281 199.117188 C 32.863281 198.515625 32.863281 198.113281 32.664062 197.511719 C 32.460938 195.296875 32.460938 193.085938 32.257812 190.671875 C 35.078125 190.46875 37.898438 190.269531 40.515625 190.066406 C 40.917969 190.066406 41.320312 190.066406 41.523438 190.066406 C 41.523438 190.066406 41.523438 190.066406 41.523438 190.269531 Z M 38.902344 181.015625 C 39.710938 181.015625 40.714844 180.816406 41.523438 180.816406 C 41.523438 183.832031 41.523438 186.648438 41.722656 189.664062 C 39.105469 189.867188 36.488281 190.066406 33.871094 190.269531 C 33.46875 190.269531 32.863281 190.269531 32.460938 190.269531 C 32.460938 187.855469 32.257812 185.441406 32.257812 183.230469 C 32.257812 182.625 32.257812 182.023438 32.257812 181.621094 C 34.472656 181.417969 36.6875 181.21875 38.902344 181.015625 Z M 12.730469 184.636719 C 12.730469 183.832031 12.730469 182.828125 12.730469 182.023438 C 15.949219 182.023438 19.171875 182.023438 22.394531 181.820312 C 22.59375 184.4375 22.59375 187.253906 22.59375 189.867188 C 22.59375 190.066406 22.59375 190.46875 22.59375 190.671875 C 21.183594 190.671875 19.574219 190.871094 18.164062 190.871094 C 16.351562 190.871094 14.539062 191.074219 12.730469 191.074219 C 12.730469 189.0625 12.730469 186.851562 12.730469 184.636719 Z M 13.132812 198.917969 C 12.929688 196.503906 12.929688 194.089844 12.730469 191.476562 C 15.949219 191.476562 19.375 191.273438 22.59375 191.074219 C 22.59375 193.890625 22.796875 196.707031 22.796875 199.519531 C 21.386719 199.519531 19.777344 199.722656 18.367188 199.722656 C 16.554688 199.722656 14.742188 199.722656 13.132812 199.722656 C 13.332031 199.722656 13.132812 199.320312 13.132812 198.917969 Z M 22.996094 208.976562 C 21.386719 208.976562 19.777344 208.976562 18.164062 208.976562 C 16.753906 208.976562 15.546875 208.976562 14.136719 208.773438 C 13.9375 205.957031 13.535156 203.140625 13.332031 200.324219 C 16.554688 200.324219 19.777344 200.324219 22.996094 200.125 C 22.996094 201.332031 22.996094 202.539062 22.996094 203.746094 C 22.996094 205.554688 22.996094 207.367188 22.996094 208.976562 Z M 22.996094 183.832031 C 22.996094 183.230469 22.996094 182.425781 22.996094 181.820312 C 23.398438 181.820312 23.804688 181.820312 24.207031 181.820312 C 26.824219 181.820312 29.441406 181.621094 31.855469 181.417969 C 31.855469 184.035156 31.855469 186.648438 31.855469 189.261719 C 31.855469 189.464844 31.855469 189.867188 31.855469 190.066406 C 29.039062 190.269531 26.019531 190.46875 23.199219 190.46875 C 23.199219 188.457031 23.199219 186.246094 22.996094 183.832031 Z M 23.199219 191.273438 C 23.804688 191.273438 24.609375 191.273438 25.210938 191.273438 C 27.425781 191.074219 29.640625 191.074219 31.855469 190.871094 C 31.855469 193.6875 32.058594 196.503906 32.257812 199.320312 C 29.238281 199.519531 26.21875 199.722656 23.199219 199.921875 C 23.199219 199.320312 23.199219 198.515625 23.199219 197.914062 C 23.398438 195.5 23.398438 193.488281 23.199219 191.273438 Z M 23.398438 208.976562 C 23.398438 205.957031 23.398438 203.140625 23.398438 200.125 C 24.003906 200.125 24.609375 200.125 25.210938 200.125 C 27.628906 199.921875 30.042969 199.921875 32.257812 199.722656 C 32.460938 201.128906 32.460938 202.539062 32.664062 203.945312 C 32.863281 205.554688 33.066406 207.164062 33.066406 208.773438 C 29.84375 208.773438 26.621094 208.976562 23.398438 208.976562 Z M 33.667969 208.574219 C 33.265625 205.554688 33.066406 202.539062 32.863281 199.722656 C 35.480469 199.519531 37.898438 199.320312 40.515625 198.917969 C 40.917969 198.917969 41.523438 198.714844 41.925781 198.714844 L 41.925781 205.152344 C 41.925781 205.957031 41.925781 206.964844 41.925781 207.769531 C 39.105469 208.171875 36.488281 208.371094 33.667969 208.574219 Z M 33.667969 208.574219 " fill-opacity="1" fill-rule="nonzero"/><path fill="#5c6633" d="M 9.304688 154.265625 L 49.976562 154.667969 L 49.976562 164.523438 L 32.257812 165.730469 L 32.257812 221.242188 L 21.183594 220.839844 L 23.398438 166.535156 L 10.109375 166.535156 Z M 9.304688 154.265625 " fill-opacity="1" fill-rule="nonzero"/><path fill="#ff4040" d="M 33.667969 157.886719 L 55.617188 157.886719 L 55.617188 159.898438 L 33.667969 159.898438 Z M 33.667969 157.886719 " fill-opacity="1" fill-rule="nonzero"/></svg>